<svg id="背景" xmlns="http://www.w3.org/2000/svg" width="355.042" height="250.28" viewBox="0 0 355.042 250.28">
  <defs>
    <style>
      .cls-1 {
        fill: #fafaff;
      }

      .cls-2, .cls-3 {
        fill: #f1f2ff;
      }

      .cls-2 {
        opacity: 0.52;
      }
    </style>
  </defs>
  <path id="路径_2716" data-name="路径 2716" class="cls-1" d="M0,208.877s20.544,0,51.123,12.014,67.347.363,86.277-5.461,50.965-4,86.277,2.548,66.983-2.912,82.637-7.28,44.587-5.461,48.686,0c-.269,5.824,0,38.952,0,38.952H0Z"/>
  <path id="路径_2717" data-name="路径 2717" class="cls-2" d="M0,224.433s16.176,12.014,61.681-4.732,68.8-9.465,83.365-2.912,42.228,16.019,90.281-2.912S339.98,220.065,355,229.894c.1,11.285,0,20.386,0,20.386H0Z"/>
  <circle id="椭圆_1123" data-name="椭圆 1123" class="cls-3" cx="3.5" cy="3.5" r="3.5" transform="translate(297 98)"/>
  <circle id="椭圆_1124" data-name="椭圆 1124" class="cls-3" cx="3.5" cy="3.5" r="3.5" transform="translate(23 143)"/>
  <g id="组_1237" data-name="组 1237">
    <path id="路径_2810" data-name="路径 2810" class="cls-3" d="M305.28,96.122a4,4,0,0,0,5.656.1L355,53.625V42.5L305.376,90.466A4,4,0,0,0,305.28,96.122Z"/>
    <path id="路径_2811" data-name="路径 2811" class="cls-3" d="M20.189,151.842a4,4,0,0,0-5.656-.1L0,165.794V176.92L20.093,157.5A4,4,0,0,0,20.189,151.842Z"/>
    <path id="路径_2812" data-name="路径 2812" class="cls-3" d="M41.189,105.842a4,4,0,0,0-5.656-.1L0,140.093v11.126L41.093,111.5A4,4,0,0,0,41.189,105.842Z"/>
    <path id="路径_2813" data-name="路径 2813" class="cls-3" d="M60.255,55.937a10,10,0,0,0,14.14.24l57.52-55.6c.192-.185.366-.381.54-.577h-28.72L60.495,41.8A10,10,0,0,0,60.255,55.937Z"/>
    <path id="路径_2814" data-name="路径 2814" class="cls-3" d="M292.28,132.732a4,4,0,0,0,5.656.1L355,77.669V66.542l-62.624,60.534A4,4,0,0,0,292.28,132.732Z"/>
  </g>
</svg>
