<svg xmlns="http://www.w3.org/2000/svg" width="632.16" height="57.672" viewBox="0 0 632.16 57.672">
  <path id="企业级代理IP服务商" d="M68.616-31.968H53.64l-6.48-8.856H24.408l-6.48,8.856H2.952l12.816-17.5H55.8ZM4.32-1.44H12.1V-29.3H23.9V-1.44h8.352v-36H44.5v14.832h21.24v8.64H44.5V-1.44H67.68V7.2H4.32Zm100.944,0h5.472V-50.4h12.24V-1.44H140.4V7.2H75.672V-1.44H93.024V-50.4h12.24ZM88.7-46.08,91.152-5.616h-10.8L77.9-46.08Zm38.592,0h10.8L135.648-5.616h-10.8ZM193.1-7.056l-5.832-10.152L184.9,7.2h-12.24l4.608-47.592H176.04v-8.64h34.416v8.64L208.944-28.44h4.1v8.208L207.216-5.688,214.632,7.2h-11.88L199.44,1.944,196.2,7.2h-8.64V-2.88h2.88ZM147.888-31.32l6.48-19.08h10.944l-6.48,19.08h1.512l3.888-11.448h10.584l-5.4,16.848-8.208,10.656h8.784v8.64H147.96v-8.64l5.832-7.416h-5.9ZM148.1-1.512,171.5-4.1V4.608L148.1,7.2Zm46.872-22.176,4.68,7.848,1.656-4.392H197.28v-7.92l1.584-12.24H189.5l-1.584,16.7Zm73.008-11.088,16.344-1.368v10.08l-12.672,1.08L283.608,7.2H270.576L258.984-23.976l-18.36,1.512v-10.08l14.76-1.224L249.192-50.4h13.032ZM228.672-50.4H241.56L237.6-38.16V7.2H225.36V-24.408h-5.112ZM278.5-49.392l3.672,11.736H270.5l-3.672-11.736Zm77.112,31.608H342.5v3.816h12.672v8.64H342.5V-1.44h14.472V7.2H315.144V-1.44h15.12V-5.328H317.232v-8.64h13.032v-3.816h-13.32V-50.472h38.664ZM290.88-49.536h24.264v8.64h-6.336v12.96h5.184v8.64h-5.184V-3.744l4.9-.36v8.64l-22.68,1.656v-8.64l5.544-.432V-19.3h-4.68v-8.64h4.68V-40.9H290.88ZM331.7-26.28V-31.1h-3.528v4.824Zm0-10.8v-4.9h-3.528v4.9Zm12.672,10.8V-31.1h-3.6v4.824Zm0-10.8v-4.9h-3.6v4.9ZM375.84-46.8,374.4,3.6H362.88l1.44-50.4Zm43.992,0,.72,34.776h-27L393.12,3.6H381.6l1.44-50.4ZM409.176-21.384l-.288-16.056H394.272l-.432,16.056ZM455.328,7.128h-15.12V-1.224h3.744V-9.648h-5.76l-.5,16.776H426.312l1.656-56.52h27.36ZM443.952-17.856V-25.2H438.7l-.288,7.344Zm0-15.552v-7.344h-4.824l-.216,7.344ZM457.2-49.392h32.976V-28.8H474.624v-7.92h4.248V-40.9h-10.44V-27H491.9v8.064L487.44-5.112,492.552,7.2H482.9L479.88.936,477.072,7.2H457.2ZM472.536-4.9l-4.1-9.864V3.96Zm5.184-10.872,2.088,5.256,2.664-8.136h-14.04v2.88Zm53.64-3.1h29.448V7.2H532.44V-1.152h16.128v-9.072H526.392L516.312,7.2H502.128l10.08-17.424H499.824v-8.64h17.424l1.584-2.736h14.112ZM514.08-31.536l-10.3-6.12h19.3l8.136,4.392,11.3-7.2h-23.9l-1.008,1.584H501.336l7.488-11.52H525.1l-1.152,1.728h38.52v8.064l-13.536,9.5,14.688,8.568H543.1L531.432-28.8,520.7-22.536H497.88ZM633.888,7.2H608.9V.576h12.744V-26.28h-36.36V7.2h-12.24V-34.488H583.92l-1.152-3.744h11.88l1.152,3.744h15.048L612-38.232h11.808l-1.152,3.744h11.232ZM571.536-47.88h25.128l-.5-2.52h11.88l.5,2.52h26.568v8.208H571.536Zm20.016,22.9H602.28l-4.968,6.624H586.584Zm-3.528,7.92H618.84V-.576H588.024ZM607.032-7.056v-3.528h-7.2v3.528ZM615.6-24.984l4.968,6.624H609.84l-4.968-6.624Z" transform="translate(-2.952 50.472)" fill="#091d43"/>
</svg>
