<svg xmlns="http://www.w3.org/2000/svg" width="186.672" height="38.4" viewBox="0 0 186.672 38.4">
  <path id="品牌保护" d="M38.544-17.136H9.36V-33.36H38.544ZM2.592-15.072H22.944V4.7H2.592ZM15.264-1.056V-9.312H10.272v8.256ZM30.384-22.9v-4.7H17.52v4.7Zm-5.232,7.728H45.5V4.7H25.152ZM37.824-1.1v-8.3H32.832v8.3ZM67.056-24.288h1.008v5.76H59.088l-.1,3.36H67.92V4.8H60.528V-9.408H58.8L58.416,4.8H50.352l1.056-37.44h8.064l-.24,8.352h1.2V-33.6h6.624ZM68.784-6.672H79.872v-4.56h8.064v4.56H94.08v5.76H87.936V4.8H79.872V-.912H68.784Zm.192-25.536h7.056L76.56-33.6h8.016l-.528,1.392h9.5V-12H79.872L77.328-7.632H69.312L71.856-12h-2.88ZM78.24-17.28v-2.88H76.464v2.88Zm0-6.816v-2.832H76.464V-24.1Zm7.824,6.816v-2.88H84.336v2.88Zm0-6.816v-2.832H84.336V-24.1Zm53.424,7.3H130.32v1.92h11.712v5.76H130.32V4.8h-8.16V-9.12H110.592v-5.76H122.16V-16.8h-9.216V-32.64h26.544ZM103.536-33.6h8.592l-2.736,8.448V4.8h-8.16V-16.272H97.92Zm9.7,26.016h7.68L118.416,4.8h-7.824Zm18.1-14.88v-4.512H121.1v4.512Zm8.256,14.88L142.08,4.8h-7.824L131.9-7.584Zm49.68-6.048H171.312l-.72,18.384h-8.16l1.392-35.712h7.152l-.384-2.64h8.256l.384,2.64h10.032Zm-42.912.144L150-13.872v-6.96h-3.648v-5.76H150V-33.6h8.16v7.008h3.552v5.76H158.16v6.144l3.6-.384v5.808l-3.6.384V4.8H147.216V-.96H150v-7.1l-3.648.384Zm34.7-5.9L181.1-25.2h-9.36l-.24,5.808Z" transform="translate(-2.592 33.6)" fill="#091d43"/>
</svg>
