<svg xmlns="http://www.w3.org/2000/svg" width="184.032" height="38.4" viewBox="0 0 184.032 38.4">
  <path id="电子商务" d="M27.936-30.048H42.864V-4.7H27.936V-.96H44.688V4.8H19.776V-4.7H5.424V-30.048H19.776V-33.6h8.16Zm-8.16,19.584V-14.5H13.584v4.032Zm0-9.792v-4.032H13.584v4.032ZM34.7-10.464V-14.5H27.936v4.032Zm0-9.792v-4.032H27.936v4.032ZM68.5-12.72H49.872v-5.76H68.5v-2.688l6.912-6.192H55.728v-5.76h32.5V-28.9L76.656-19.344v.864H94.032v5.76H76.656V4.752H62.5v-5.76h6ZM140.3,4.8H123.648V.384h8.5v-17.9H107.9V4.8h-8.16V-22.992h7.248l-.768-2.5h7.92l.768,2.5h10.032l.768-2.5h7.872l-.768,2.5H140.3ZM98.736-31.92h16.752l-.336-1.68h7.92l.336,1.68H141.12v5.472H98.736ZM112.08-16.656h7.152L115.92-12.24h-7.152Zm-2.352,5.28h20.544V-.384H109.728ZM122.4-4.7V-7.056h-4.8V-4.7Zm5.712-11.952,3.312,4.416h-7.152l-3.312-4.416Zm39.84,4.08h19.632V4.8H168.672V-.768h10.752V-6.816H164.64L157.92,4.8h-9.456l6.72-11.616h-8.256v-5.76h11.616L159.6-14.4h9.408Zm-11.52-8.448-6.864-4.08h12.864l5.424,2.928,7.536-4.8H159.456l-.672,1.056H147.936l4.992-7.68h10.848l-.768,1.152h25.68v5.376l-9.024,6.336,9.792,5.712h-13.68L168-19.2l-7.152,4.176H145.632Z" transform="translate(-5.424 33.6)" fill="#091d43"/>
</svg>
