<svg xmlns="http://www.w3.org/2000/svg" width="185.952" height="38.4" viewBox="0 0 185.952 38.4">
  <path id="市场调查" d="M42.96.96H29.52V-4.8H34.8v-9.984H27.936V4.8h-8.16V-14.784H13.3V.96H5.136v-21.5h14.64V-24H2.832v-5.76H20.016l-.864-3.792h7.68L27.7-29.76H45.312V-24H27.936v3.456H42.96ZM85.536-15.168H67.92v-5.76L79.248-26.88H67.968v-5.76H92.976v5.76L81.7-20.928H93.6V4.8H83.52V-.96h2.016ZM49.92-23.136H54.1V-33.552h8.16v10.416h3.888v5.76H62.256V-2.16L66.384-2.5v5.76L49.968,4.56V-1.2L54.1-1.536v-15.84H49.92Zm19.056,9.312H75.84L73.68,4.8H66.816Zm8.5,0h6.864L82.128,4.8H75.264ZM141.7,4.8H127.92V-.96h5.712V-27.168H120.624L119.328,4.8h-8.064L112.8-32.928h28.9ZM97.968-25.44h10.944V-.96h1.776V4.8h-9.936V-19.68H97.968ZM108-33.6l.672,7.1h-7.824l-.672-7.1Zm12.528,15.888h3.12v-1.632h-2.64v-3.648h2.64v-2.976h6.72v2.976h2.64v3.648h-2.64v1.632h3.12v3.744h-12.96Zm.144,5.184H133.1V-2.64H120.672Zm7.536,6.336V-8.976h-2.64v2.784Zm43.776-26.016H188.3v5.76h-16.32v6h-8.16v-6H147.5v-5.76h16.32V-33.6h8.16ZM147.024-.96h41.76V4.8h-41.76ZM151.2-25.584h8.736l-3.648,5.136h-8.736ZM148.848-19.3h37.824V-2.112H148.848Zm29.664,11.9V-9.024h-21.5v1.632Zm0-4.992v-1.632h-21.5v1.632Zm5.664-13.2,3.7,5.136h-8.736l-3.7-5.136Z" transform="translate(-2.832 33.6)" fill="#091d43"/>
</svg>
