<svg xmlns="http://www.w3.org/2000/svg" width="187.968" height="38.4" viewBox="0 0 187.968 38.4">
  <path id="价格监控" d="M13.392-25.152V4.8H5.232V-16.272H1.92L7.536-33.6h8.592Zm8.88-8.448H37.584L45.12-18.192H36.048l-4.7-9.648H28.512l-4.7,9.648H14.736ZM19.2-17.232h8.208L25.488,4.8H17.28Zm13.824,0h8.16V4.8h-8.16ZM61.44-27.84H64.7v5.76H61.44V4.8H53.472V-22.08H49.92v-5.76h3.552v-5.712H61.44ZM50.5-20.448H52.7L52.128,4.8H49.92Zm13.92,0L64.9,4.8H62.688l-.48-25.248Zm6.384.528-2.448-3.5h9.936l1.3,1.776L82.7-25.92H75.552l-.672,1.536H66.1L70.032-33.6h8.736l-.816,1.92h14.4v5.76L88.32-20.064,94.032-13.3l-10.464-.048-3.792-4.464L75.6-13.392H64.608Zm-4.224,7.536H92.448V4.8H66.576ZM84.288-.96V-6.624H74.736V-.96Zm54.912,0h2.544V4.8H98.256V-.96h2.88V-13.1H139.2Zm-38.544-31.2h7.68v16.9h-7.68ZM111.84-.96V-7.344H109.3V-.96ZM110.448-33.6h8.16v19.1h-8.16ZM121.392-.96V-7.344h-2.544V-.96Zm.384-32.64h8.16l-.144,2.64h12v5.76H129.408l-.672,10.7h-8.16ZM131.04-.96V-7.344H128.4V-.96Zm6.768-22.56,2.64,9.024h-7.824l-2.64-9.024Zm19.728-4.56h2.976v5.76h-2.976v6.864l3.072-.528v5.856l-3.072.528V4.8H146.688V-.96h2.688V-8.208l-3.456.576v-5.856l3.456-.576V-22.32h-3.168v-5.76h3.168V-33.6h8.16ZM161.28-.96h10.464V-8.64h-9.12V-14.4h25.92v5.76H179.9V-.96h9.984V4.8H161.28Zm.24-30.528h9.744l-.336-2.112h8.256l.336,2.112h10.32v10.752H187.1l2.5,4.8h-8.352L177.5-22.944h4.56v-3.072H169.3v3.072H173.9l-3.744,7.008h-8.352l2.5-4.8H161.52Z" transform="translate(-1.92 33.6)" fill="#091d43"/>
</svg>
