<svg xmlns="http://www.w3.org/2000/svg" width="179.616" height="38.4" viewBox="0 0 179.616 38.4">
  <path id="SEO情报" d="M2.4-31.2H25.056v6.72H10.368l-.144,5.472,15.6,1.584V2.4H2.4V-4.32H18.144v-6.912L1.92-12.864Zm50.016,0v6.24h-14.3l-.192,6.672H50.976v6.24h-13.2l-.24,8.208H54.72V2.4H29.664l.96-33.6Zm32.592,0,.48,33.6H58.56l1.2-33.6ZM77.952-3.84l-.288-21.12H67.2L66.48-3.84Zm54.72,8.64H119.664V0h4.944V-1.056H113.952V4.8h-8.064V-14.976h26.784ZM90.528-26.5H93.12L92.64-6.48H90.048Zm2.928-7.056h7.968v38.3H93.456ZM104.3-25.584l.48,17.616h-2.5l-.48-17.616Zm1.1,4.464h9.5v-.96h-8.064v-4.128h8.064v-.96h-9.024v-5.28h9.024V-33.6h8.16v1.152h9.456v5.28h-9.456v.96h8.256v4.128h-8.256v.96h10.272v5.28H105.408Zm19.2,16.8v-.96H113.952v.96Zm0-4.224V-9.5H113.952v.96Zm25.056-18.528h3.12v5.76h-3.12V-15.6l3.12-.288v5.808l-3.12.288V4.8h-10.8V-.864h2.64V-8.976L138-8.64v-5.808l3.5-.336v-6.528H138.1v-5.76H141.5V-33.6h8.16Zm4.176-5.856H180V-19.2H166.752v-5.28h5.712v-2.784H162V3.888l3.792-7.152-3.456-7.248h7.392l1.584,3.5,2.064-5.424h-10.9V-18h18.1v5.376l-3.36,9.072,4.32,8.352h-7.824L171.36.624,169.248,4.8H153.84Z" transform="translate(-1.92 33.6)" fill="#091d43"/>
</svg>
