<svg xmlns="http://www.w3.org/2000/svg" width="188.496" height="38.4" viewBox="0 0 188.496 38.4">
  <path id="社交采集" d="M14.832-29.232h3.7v5.76l-3.5,6.336V4.8h-7.2V-7.3H1.392L10.32-23.472H2.976v-5.76H7.584L7.008-33.6h7.248ZM18.816-16.08l1.392,9.408h-3.6L15.216-16.08ZM17.76-.96H27.7v-15.5H20.16v-5.664H27.7V-33.6h8.16v11.472H44.3v5.664H35.856V-.96H45.84V4.8H17.76ZM72-10.08l5.568-3.984H91.392L78.912-5.088,92.688,4.8H78.864L72-.144,65.136,4.8H51.312L65.088-5.088l-12.48-8.976H66.432ZM57.264-24.864h9.984l-6.72,8.5H50.544Zm-4.608-7.488H67.728L67.44-33.6H75.6l.288,1.248H91.3v5.76H52.656Zm34.032,7.488,6.72,8.5H83.424l-6.72-8.5ZM138.72-27.84l-37.68.576v-5.76l37.68-.576ZM103.728-8.16h8.592L108.24,4.8H99.648Zm-3.36-7.3h15.5v-1.92h8.16v1.92h15.456V-9.7H124.032V4.8h-8.16V-9.7h-15.5Zm10.176-10.752,2.3,7.68H104.4l-2.352-7.68Zm12.048,0,2.256,7.68h-8.592L114-26.208Zm6.72-.528h8.544l-3.024,8.208H126.24ZM136.224-8.16,140.352,4.8H131.76L127.632-8.16Zm21.5-24h6.96L164.3-33.6h8.3l.384,1.44h16.416v4.416H173.232v1.1h15.552V-22.7H173.232v1.1h15.552v3.936H173.232v1.1h16.176v4.416H148.464V-24.576h-2.64l3.744-9.024H158.3ZM146.3-10.464H163.92v-1.008h8.16v1.008h17.808V-4.7H172.08V4.8h-8.16V-4.7H146.3Zm5.088,7.008h9.264l-4.7,8.256h-9.264Zm13.68-13.1v-1.1h-8.448v1.1Zm0-5.04v-1.1h-8.448v1.1Zm0-5.04v-1.1h-8.448v1.1ZM184.944-3.456,189.312,4.8h-9.12l-4.368-8.256Z" transform="translate(-1.392 33.6)" fill="#091d43"/>
</svg>
